<svg xmlns="http://www.w3.org/2000/svg" viewBox="0 0 1456.04 323.72"><defs><style>.cls-1{fill:#115fab;}.cls-2{fill:none;}</style></defs><title>Boeing</title><g id="Layer_2" data-name="Layer 2"><path class="cls-1" d="M1468.18,89.38a16.35,16.35,0,1,1-16.29-15.91A16,16,0,0,1,1468.18,89.38Zm-28.61,0c0,7.08,5.24,12.71,12.41,12.71,7,0,12.12-5.63,12.12-12.61s-5.14-12.8-12.22-12.8A12.36,12.36,0,0,0,1439.57,89.38Zm9.79,8.34h-3.68V81.81c2.56-.51,8.71-1,11.64.68,1.88,1.46,2.81,5.81-1.75,7.18v.19c3.59,1.35,2.66,5.73,4.07,7.86h-4c-.49-.58-.78-2-1.26-3.88-.47-2.82-2.63-2.52-5-2.52Zm.1-9h1.75c2,0,3.69-.68,3.69-2.33,0-1.45-1.07-2.42-3.39-2.42a8.8,8.8,0,0,0-2,.19Z" transform="translate(-12.13 -6.64)"/></g><g id="Boeing_Logo" data-name="Boeing Logo"><path class="cls-1" d="M125.19,42.37A113.06,113.06,0,1,0,238.25,155.42,113.06,113.06,0,0,0,125.19,42.37Zm0,211.46c-55,0-99.57-44.06-99.57-98.4S70.2,57,125.19,57s99.57,44.06,99.57,98.4S180.18,253.82,125.19,253.82Z" transform="translate(-12.13 -6.64)"/><path class="cls-1" d="M562.53,75.19H433.65L345,192.13H479a54.13,54.13,0,0,0,43.13-21.42l12.33-16.25a12.91,12.91,0,0,0-1.3-17.08l-.93-.9A52.52,52.52,0,0,0,562.44,117l12.75-16.3A15.89,15.89,0,0,0,562.53,75.19Zm-90,76L463.61,163a11.67,11.67,0,0,1-9.3,4.62H427.1l17.17-22.64h25.16A3.89,3.89,0,0,1,472.54,151.19Zm34.23-45.13-7.19,9.49a12.66,12.66,0,0,1-10.09,5H462.77l15.9-21h24.88A4,4,0,0,1,506.76,106.07Z" transform="translate(-12.13 -6.64)"/><path class="cls-1" d="M757.6,75.19H655.21a54.91,54.91,0,0,0-43.75,21.73l-52.9,69.75a15.87,15.87,0,0,0,12.65,25.46H673.15A55.81,55.81,0,0,0,717.62,170l52.63-69.39A15.87,15.87,0,0,0,757.6,75.19Zm-55.76,31.66-41.54,54.77a15.07,15.07,0,0,1-12,6H630.46a3.83,3.83,0,0,1-3-6.14l42.66-56.24a14.16,14.16,0,0,1,11.28-5.6h16.89A4.52,4.52,0,0,1,701.84,106.85Z" transform="translate(-12.13 -6.64)"/><path class="cls-1" d="M954.09,75.19H826L737.28,192.13H865.41s19.38-24.54,18.61-24.54H819.73l17.17-22.64h64.28l18.4-24.37H855.39l15.9-21h63.58Z" transform="translate(-12.13 -6.64)"/><polygon class="cls-1" points="977.63 68.55 1042.09 68.55 953.4 185.49 888.94 185.49 977.63 68.55"/><polygon class="cls-1" points="1144.79 185.49 1093.87 185.49 1080.79 127.02 1036.45 185.49 993.64 185.49 1082.32 68.55 1132.12 68.55 1145.39 127.5 1190.11 68.55 1233.47 68.55 1144.79 185.49"/><path class="cls-2" d="M1351.92,99.6h-17.44a14.61,14.61,0,0,0-11.64,5.78l-42.14,55.56a4.14,4.14,0,0,0,3.3,6.65h17.64a14,14,0,0,0,11.18-5.55l25-33h-12.67L1336,115.45h12.14l7-9.28A4.1,4.1,0,0,0,1351.92,99.6Z" transform="translate(-12.13 -6.64)"/><path class="cls-1" d="M1348.14,115.45h64.6l10.64-14a16.35,16.35,0,0,0-13-26.23h-101a55.74,55.74,0,0,0-44.41,22.06L1212.75,166a16.26,16.26,0,0,0,13,26.09h100.1A58,58,0,0,0,1372,169.19l11.78-15.53h14.32L1416.88,129h-79l-25,33a14,14,0,0,1-11.18,5.55H1284a4.14,4.14,0,0,1-3.3-6.65l42.14-55.56a14.61,14.61,0,0,1,11.64-5.78h17.44a4.1,4.1,0,0,1,3.27,6.57Z" transform="translate(-12.13 -6.64)"/><path class="cls-1" d="M404.58,235.48c-82.42,2.16-157.61,5.35-196.37,8L167.08,166C242.72,239.3,407.28,226.52,404.58,235.48Z" transform="translate(-12.13 -6.64)"/><path class="cls-1" d="M56.08,300.48c-14-12.43-4.31-53.11,28.39-107.11C152.62,80.81,246.11,6.64,246.11,6.64,174.54,49.65,133.72,92.49,99,135.21c-71.58,88-95,171-64.77,192.2,12.76,9,56.29-.84,91-53.27C105.56,291.67,71.48,314.14,56.08,300.48Z" transform="translate(-12.13 -6.64)"/></g></svg>