<svg id="Layer_1" data-name="Layer 1" xmlns="http://www.w3.org/2000/svg" viewBox="0 0 1901.03 813.58"><defs><style>.cls-1{fill:#3c3c28;}.cls-2{fill:#ae272e;}</style></defs><title>twitterc</title><path class="cls-1" d="M1737.41,43.42H1584.93V177.13h152.48a40.1,40.1,0,1,1,0,80.2H1584.93v228h44.15L1719.73,391h17.68c95.84,0,173.8-77.94,173.8-173.76S1833.25,43.42,1737.41,43.42Z" transform="translate(-10.18 -43.42)"/><path class="cls-2" d="M198.77,655.45c-18.7-19.82-36-25.21-53.6-25.21-52.56,0-87.5,40.3-87.5,91.08,0,54.32,34.94,94.65,87.5,94.65,20.51,0,40.3-9.35,57.21-31l37.44,26.65c-23,31.69-57.6,45.36-95,45.36C66.33,857,10.18,803.72,10.18,724.17c0-81.7,56.15-135,134.61-135,34.57,0,64.08,11.16,89.28,40.31Z" transform="translate(-10.18 -43.42)"/><path class="cls-2" d="M280.13,595.68h45.36V850.5H280.13Z" transform="translate(-10.18 -43.42)"/><path class="cls-2" d="M358.64,595.68h52.18l69.46,192.57,71.63-192.57h48.94L497.93,850.5H458.7Z" transform="translate(-10.18 -43.42)"/><path class="cls-2" d="M634.35,595.68h45.34V850.5H634.35Z" transform="translate(-10.18 -43.42)"/><path class="cls-2" d="M909.56,655.45c-18.74-19.82-36-25.21-53.64-25.21-52.55,0-87.47,40.3-87.47,91.08,0,54.32,34.92,94.65,87.47,94.65,20.52,0,40.29-9.35,57.24-31l37.43,26.65C927.52,843.33,893,857,855.57,857,777.1,857,721,803.72,721,724.17c0-81.7,56.14-135,134.61-135,34.55,0,64.06,11.16,89.26,40.31Z" transform="translate(-10.18 -43.42)"/><path class="cls-1" d="M988,595.68h85.67c49.33,0,94,17.29,94,73.78,0,64.07-47.85,75.6-101.87,75.6h-32.39V850.5H988Zm72.75,110.51c25.91,0,59.36-1.44,59.36-36,0-31.31-29.86-35.63-54.36-35.63h-32.39v71.63Z" transform="translate(-10.18 -43.42)"/><path class="cls-1" d="M1203.39,595.68h45.38V809.49h108.31v41H1203.39Z" transform="translate(-10.18 -43.42)"/><path class="cls-1" d="M1583.7,756.94c0,61.55-44.29,100.06-102.58,100.06s-102.59-38.51-102.59-100.06V595.68h45.35V755.5c0,25.18,13.69,58.3,57.24,58.3s57.23-33.12,57.23-58.3V595.68h45.35Z" transform="translate(-10.18 -43.42)"/><path class="cls-1" d="M1758.35,650.4c-9.72-13.66-27-20.16-44.64-20.16-20.87,0-41.75,9.36-41.75,32.75,0,51.12,120.91,22,120.91,112.65,0,54.72-43.15,81.36-93.21,81.36-31.65,0-62.6-9.73-83.47-34.55l34.16-33.11A60.23,60.23,0,0,0,1700.77,816c20.84,0,44.63-11.53,44.63-34.92,0-55.79-121-23.76-121-114.81,0-52.56,46.82-77,93.95-77,26.65,0,53.29,7.58,73.1,26.29Z" transform="translate(-10.18 -43.42)"/><path class="cls-2" d="M1516.09,391H1362.4c-95.83,0-173.8-77.94-173.8-173.76s78-173.83,173.8-173.83h153.69V177.13H1362.4a40.1,40.1,0,0,0,0,80.2h153.69V391Z" transform="translate(-10.18 -43.42)"/><path class="cls-1" d="M1843.06,590.15A23.86,23.86,0,1,1,1819.21,614,23.73,23.73,0,0,1,1843.06,590.15Zm0,44.25c10.91,0,19.63-8.85,19.63-20.4s-8.72-20.39-19.63-20.39-19.62,8.86-19.62,20.39S1832.1,634.4,1843.06,634.4ZM1834,600h10.51c6.61,0,9.75,2.64,9.75,8,0,5.06-3.2,7.18-7.37,7.62l8,12.31h-4.55l-7.57-12h-4.55v12H1834Zm4.23,12.44h4.36c3.78,0,7.44-.19,7.44-4.67,0-3.86-3.34-4.31-6.22-4.31h-5.58Z" transform="translate(-10.18 -43.42)"/></svg>