<svg id="Garmin" xmlns="http://www.w3.org/2000/svg" viewBox="0 0 1892.98 513.55"><defs><style>.cls-1{fill:#231f20;}.cls-2{fill:#0071ce;fill-rule:evenodd;}</style></defs><title>Garmin</title><path class="cls-1" d="M507.41,501c-3.14-6.34-11.52-11.51-18.61-11.51H474.39c-7.08,0-15.36,5.23-18.42,11.61L341.73,739.76c-3.18,6.32.27,10.84,7.36,10.84h26.4c10.42,0,15.2-4.74,18-10.55s9.13-18.43,10.33-21c1.63-3.48,6.65-5.62,13.73-5.61l122.92.07c7.08,0,11.63,1.36,13.73,5.54,1.36,2.73,7.64,14.08,10.74,20.28s8.34,11.28,18.49,11.28h38.31c7.08,0,10.18-5.38,7.63-10.37ZM435.24,676.57c-7.08,0-10.41-5.27-7.43-11.68l45-96.44c3-6.43,7.84-6.39,10.76,0l43.84,96.44c2.92,6.43-.48,11.7-7.55,11.7Zm954.93-173.74V739.61c0,6.52,5.79,11,12.88,11h31.22c7.08,0,12.87-4.52,12.87-11.61V502.35c0-7.09-4.57-12.87-11.65-12.87h-32.44C1396,489.48,1390.17,493.84,1390.17,502.83ZM867,651.14c-4.07-5.8-1.84-12.2,4.94-14.22,0,0,27-8.08,39.89-19.65s19.41-28.38,19.41-50.22q0-21.43-7.47-36.07a61.75,61.75,0,0,0-21.39-23.83q-13.9-9.21-33.31-13.46c-13-2.8-30.42-3.62-30.42-3.62-7.08-.33-18.66-.59-25.72-.59H683.3a12.9,12.9,0,0,0-12.86,12.87V739c0,7.09,5.79,11.61,12.86,11.61H714c7.08,0,12.88-4.52,12.88-11.61,0,0,0-94.12.07-94.12s.09-.06.09-.12,58.16-.14,58.16-.14c7.07,0,16.21,4.73,20.3,10.52l60.37,85c5.61,7.53,10.95,10.46,18,10.46H924c7.08,0,8.19-6.68,5.74-10.15S867,651.14,867,651.14Zm-24.41-48.06a107.25,107.25,0,0,1-16.89,2.2c-7.07.31-18.64.55-25.72.55H739.9A12.91,12.91,0,0,1,727,593V545a12.91,12.91,0,0,1,12.88-12.87H800c7.08,0,18.65.25,25.72.55a105.28,105.28,0,0,1,16.89,2.19c7.94,1.83,14.25,4.39,18.85,7.69a29,29,0,0,1,9.94,11.71,37.81,37.81,0,0,1,0,29.38,28.91,28.91,0,0,1-9.94,11.7C856.86,598.68,850.55,601.27,842.61,603.08Zm930.85-113.6c-7.08,0-12.8,4.67-12.8,11.48,0,3.28.08,151.37.08,151.37,0,7.1-4,8.71-8.93,3.61L1600.24,498.73a29.61,29.61,0,0,0-21.82-9.25h-28.5c-9,0-12.89,4.78-12.89,9.63v242c0,4.83,4.6,9.44,11.69,9.44h28.55c7.06,0,12-3.85,12-10.37,0-3.27.15-159.46.15-159.46,0-7.08,4-8.7,8.9-3.59l158,164.3c5,5,11.12,9.12,22,9.12h21.45a12.91,12.91,0,0,0,12.88-12.88V502.35a12.9,12.9,0,0,0-12.88-12.87ZM1155.51,637.07c-3.44,6.19-9.09,6.16-12.49,0l-74.08-136a20.41,20.41,0,0,0-18.61-11.51h-40.18a12.92,12.92,0,0,0-12.89,12.87V738.69c0,7.07,4.66,11.91,12.89,11.91h25c7.1,0,12.2-4.47,12.2-11.3,0-3.27.11-171.9.38-171.9s92.47,171.85,92.47,171.85a8.31,8.31,0,0,0,14.94.06s93-171.41,93.23-171.41.19,166.48.19,171.4c0,6.83,5.46,11.3,12.55,11.3h28.76c7.09,0,12.87-3.53,12.87-12.88V502.35a12.89,12.89,0,0,0-12.87-12.87h-38.52c-9.83,0-15.74,5-19.25,11.17Z" transform="translate(-13.28 -242.29)"/><path class="cls-1" d="M13.28,619.8c0,127.51,130.42,134,156.57,134,86.55,0,123.12-23.39,124.63-24.4,5.42-3.06,12-9.24,12-20.81v-88a14.74,14.74,0,0,0-14.72-14.71H183.05c-8.13,0-13.46,6.6-13.46,14.71v9.12c0,8.12,5.33,14.74,13.46,14.74h62.89a11,11,0,0,1,11,11s-.07,38.58-.07,41c-12.42,5.08-69,21.61-114.48,10.77-66-15.78-71.1-70.2-71.1-86.49,0-13.68,4.1-82.22,85.11-89.15C222,526,265.15,552.43,265.58,552.69c7.71,4,15.69,1.15,20-7,0-.07,8.18-16.58,8.18-16.58,3.4-6.79,2.26-13.84-6-19.46-.55-.32-46.52-25.24-117.84-25.24C17.67,484.4,13.28,606,13.28,619.8Z" transform="translate(-13.28 -242.29)"/><path class="cls-2" d="M1759.05,424.22H1588.26a17.05,17.05,0,0,1-14.76-25.57l85.41-147.84a17,17,0,0,1,29.51,0l85.39,147.84a17,17,0,0,1-14.76,25.58Z" transform="translate(-13.28 -242.29)"/><path class="cls-1" d="M1876.48,696.27a29.79,29.79,0,1,1-29.78,29.78A29.83,29.83,0,0,1,1876.48,696.27Zm.08,55.11c13.7,0,24-11,24-25.33s-10.31-25.33-24-25.33-24.17,11.06-24.17,25.33S1862.71,751.38,1876.56,751.38Zm-11.47-42.81h13.36c8,0,12,3.21,12,9.81,0,5.61-3.55,9.65-9,9.65l9.9,15.43h-6L1875.57,728h-4.78v15.43h-5.7Zm5.7,15h6.77c4.37,0,7.17-.9,7.17-5.43,0-4-3.55-5.12-7.17-5.12h-6.77Z" transform="translate(-13.28 -242.29)"/></svg>