<svg id="Google" xmlns="http://www.w3.org/2000/svg" viewBox="0 0 1000 328.56"><defs><style>.cls-1{fill:#4885ed;}.cls-2{fill:#db3236;}.cls-3{fill:#f4c20d;}.cls-4{fill:#3cba54;}</style></defs><title>Artboard 1</title><path id="path2998" class="cls-1" d="M246.11,116.18H129.54v34.59h82.67C208.13,199.28,167.77,220,129.68,220c-48.74,0-91.26-38.35-91.26-92.09,0-52.36,40.54-92.68,91.37-92.68,39.22,0,62.33,25,62.33,25l24.22-25.08S185.25.5,128.55.5C56.35.5.5,61.44.5,127.25.5,191.75,53,254.63,130.39,254.63c68,0,117.83-46.6,117.83-115.52,0-14.54-2.11-22.94-2.11-22.94Z"/><path id="path3000" class="cls-2" d="M341.6,91.13c-47.83,0-82.11,37.4-82.11,81,0,44.26,33.25,82.35,82.67,82.35,44.74,0,81.4-34.2,81.4-81.4,0-54.1-42.64-82-82-82Zm.48,32.08c23.52,0,45.81,19,45.81,49.66,0,30-22.2,49.55-45.92,49.55-26.07,0-46.63-20.88-46.63-49.79,0-28.29,20.31-49.42,46.74-49.42Z"/><path id="path3005" class="cls-3" d="M520.18,91.13c-47.83,0-82.11,37.4-82.11,81,0,44.26,33.25,82.35,82.67,82.35,44.74,0,81.4-34.2,81.4-81.4,0-54.1-42.64-82-82-82Zm.48,32.08c23.52,0,45.81,19,45.81,49.66,0,30-22.2,49.55-45.92,49.55-26.07,0-46.63-20.88-46.63-49.79,0-28.29,20.31-49.42,46.74-49.42Z"/><path id="path3007" class="cls-1" d="M695.34,91.21c-43.9,0-78.41,38.45-78.41,81.61,0,49.16,40,81.76,77.66,81.76,23.28,0,35.66-9.24,44.8-19.85v16.11c0,28.18-17.11,45.06-42.94,45.06-24.95,0-37.46-18.55-41.81-29.08L623.24,280c11.14,23.55,33.55,48.1,73.46,48.1,43.65,0,76.92-27.49,76.92-85.16V96.13H739.38V110c-10.53-11.35-24.93-18.75-44-18.75Zm3.18,32c21.53,0,43.63,18.38,43.63,49.77,0,31.9-22.06,49.49-44.1,49.49-23.41,0-45.18-19-45.18-49.18,0-31.36,22.62-50.07,45.66-50.07Z"/><path id="path3011" class="cls-2" d="M925.89,91c-41.41,0-76.19,33-76.19,81.57,0,51.45,38.76,82,80.16,82,34.56,0,55.77-18.91,68.43-35.85l-28.23-18.79c-7.33,11.37-19.58,22.48-40,22.48-23,0-33.52-12.57-40.06-24.75L999.5,152.2l-5.69-13.32C983.23,112.8,958.55,91,925.89,91Zm1.43,31.41c14.92,0,25.66,7.93,30.22,17.45L884.4,170.45c-3.15-23.67,19.27-48,42.91-48Z"/><path id="path3015" class="cls-4" d="M797.49,249.7h36V8.95h-36Z"/></svg>