<svg id="Koch" xmlns="http://www.w3.org/2000/svg" viewBox="0 0 1879.33 275.12"><defs><style>.cls-1{fill:#0099d8;}</style></defs><title>Koch</title><path id="TM" d="M1889.09,401.18,1880,426.63l-9.12-25.45h-10.18v35.56h6.53V408.05l9.93,28.68h5.72l9.81-28.68v28.68h6.53V401.18Zm-64.7,0v6H1836v29.59h7V407.14h11.65v-6Z" transform="translate(-19.87 -162.44)"/><polygon id="H" points="1676.41 0 1676.41 98.17 1588.99 98.07 1588.84 0 1485.18 0 1485.18 274.46 1589.43 274.41 1589.43 174.67 1675.53 174.67 1675.53 274.41 1782.49 274.46 1782.49 0 1676.41 0"/><path id="C" d="M1456.48,262.33V241.48c.32-24.62-8.72-49.26-23.53-64.29-9.34-9.44-20.13-14.44-31.24-14.44H1214.18c-30.18,0-54.77,35.31-54.77,78.72V358.3c0,43.37,24.59,78.65,54.77,78.65h187.53c30.21,0,54.77-35.28,54.77-78.65V326.66l-98.39.22-2.27,26.27c-1.11,11.24-8.65,23.26-18.11,23.26h-57.34c-10,0-18.09-8.87-18.09-19.79V247c0-10.92,8.11-19.79,18.09-19.79h57.34c10,0,18.11,8.87,18.11,19.79v15.3Z" transform="translate(-19.87 -162.44)"/><path id="O" d="M1052.84,162.74H873.78c-33.53,0-60.81,30.8-60.81,68.65v136.7c0,37.92,27.28,68.72,60.81,68.72h179.06c33.51,0,60.81-30.8,60.81-68.72V231.39c0-37.85-27.3-68.65-60.81-68.65m-42,83.7v110c0,11.21-8.11,20.33-18.06,20.33H934.39c-10,0-18.09-9.12-18.09-20.33v-110c0-11.21,8.11-20.33,18.09-20.33h58.37c10,0,18.06,9.12,18.06,20.33" transform="translate(-19.87 -162.44)"/><path id="K" d="M681.92,284.25c1.63-1.75,115.14-121.57,115.14-121.57H689.53L584.1,260.05V162.68H483V437.56H584.1v-59c.86-.76,19.27-16.93,21.19-18.63,1.77,2.14,63.2,77.67,63.2,77.67H804.92s-121.5-151.46-123-153.31" transform="translate(-19.87 -162.44)"/><path d="M201.21,162.84H19.87V437.23l180-.07s-42.5-136-42.73-136.65l44.08-137.66" transform="translate(-19.87 -162.44)"/><polygon class="cls-1" points="245.54 0.42 163.07 137.76 245.54 274.74 372.86 274.74 372.86 0.42 245.54 0.42"/></svg>