<svg id="Layer_1" data-name="Layer 1" xmlns="http://www.w3.org/2000/svg" viewBox="0 0 505.42 82.69"><defs><style>.cls-1{fill:#231f20;}.cls-2{fill:#78a22f;}</style></defs><title>Tradebot</title><path class="cls-1" d="M532.55,107.64v-5.88H534l1.49,4.69,1.44-4.69h1.41v5.88h-.89v-4.93l-1.52,4.93H535l-1.58-5v5Zm-3.56,0v-5h-1.9v-.87h4.8v.87H530v5Z" transform="translate(-32.91 -25.86)"/><path class="cls-1" d="M159.74,107.52V82.3h2.47a20.23,20.23,0,0,1,6.14.68A9.4,9.4,0,0,1,172,85.49a85.94,85.94,0,0,1,6.43,8.88l8.82,13.15h14.59l-7.38-11.78a68.75,68.75,0,0,0-6.94-9.8A28.33,28.33,0,0,0,181,80.86q7.95-1.16,11.95-5.58a16.13,16.13,0,0,0,4-11.23,17.39,17.39,0,0,0-2.64-9.51,13.86,13.86,0,0,0-7-5.79q-4.39-1.63-14.07-1.63H147.54v60.4Zm0-50.18h9.52q7.42,0,8.9.21a7.44,7.44,0,0,1,4.59,2.37,7.24,7.24,0,0,1,1.63,4.93,7.87,7.87,0,0,1-1.24,4.53,6.57,6.57,0,0,1-3.42,2.55q-2.18.74-11,.74h-9Z" transform="translate(-32.91 -25.86)"/><path class="cls-1" d="M237.87,47.12H225l-23.53,60.4h12.94l5-13.72h24.14l5.27,13.72h13.27Zm-14.75,36.5,8.16-22.41,8.32,22.41Z" transform="translate(-32.91 -25.86)"/><path class="cls-1" d="M263.42,107.52h22.95a36.88,36.88,0,0,0,10.79-1.28,21.45,21.45,0,0,0,8.57-4.82,26.62,26.62,0,0,0,6.47-10.67,39.65,39.65,0,0,0,1.85-12.86,44.54,44.54,0,0,0-2-14.27,26.38,26.38,0,0,0-5.77-9.79,20.16,20.16,0,0,0-9.11-5.56,43.46,43.46,0,0,0-11.49-1.15H263.42Zm17.67-50.18a55,55,0,0,1,10,.58,11.62,11.62,0,0,1,5.65,2.84,13.83,13.83,0,0,1,3.46,5.85,36,36,0,0,1,1.24,10.75,39.35,39.35,0,0,1-1.24,11.06A12.8,12.8,0,0,1,297,94.25a11.2,11.2,0,0,1-4.92,2.51,33.16,33.16,0,0,1-7.37.58h-9.11v-40Z" transform="translate(-32.91 -25.86)"/><path class="cls-1" d="M367,107.52V97.34H333.21V80.9h30.32V70.73H333.21V57.34H365.8V47.12H321v60.4Z" transform="translate(-32.91 -25.86)"/><path class="cls-1" d="M375.65,107.52h20.56q11.66-.08,14.71-.41a17.32,17.32,0,0,0,8.18-2.86A16.15,16.15,0,0,0,424.33,98a17.92,17.92,0,0,0,1.91-8,14.54,14.54,0,0,0-3-9.11,15.91,15.91,0,0,0-8.49-5.48,14.3,14.3,0,0,0,8.49-13.1,13.65,13.65,0,0,0-1.86-7.07,15.48,15.48,0,0,0-4.63-5,15.68,15.68,0,0,0-6.3-2.49,70,70,0,0,0-10.69-.6H375.65Zm19.2-50.35q8.61,0,10.42.21a7,7,0,0,1,4.6,2.12,6.62,6.62,0,0,1,1.54,4.55,6.39,6.39,0,0,1-1.79,4.72,8.06,8.06,0,0,1-4.92,2.16q-1.73.21-8.86.21h-8v-14Zm2.84,24q8.32,0,10.82.87a7.44,7.44,0,0,1,3.81,2.76,7.87,7.87,0,0,1,1.32,4.61,7.44,7.44,0,0,1-1.71,5.13A7.59,7.59,0,0,1,407.5,97a55.28,55.28,0,0,1-8.37.37H387.84V81.19Z" transform="translate(-32.91 -25.86)"/><path class="cls-1" d="M438.65,100.33q8,8.22,21.42,8.22,13.31,0,21.26-8.26t8-22.89q0-14.75-8-23t-21.36-8.28a33.1,33.1,0,0,0-13,2.39,23.46,23.46,0,0,0-7.81,5.43,28.43,28.43,0,0,0-5.62,8.28q-2.76,6.26-2.76,15.49Q430.7,92.11,438.65,100.33Zm9.23-38.64a16.86,16.86,0,0,1,24.24-.06q4.55,5.11,4.56,15.49T472,92.87a15.28,15.28,0,0,1-12,5.25,15.44,15.44,0,0,1-12-5.29q-4.74-5.3-4.74-15.55Q443.26,66.85,447.88,61.69Z" transform="translate(-32.91 -25.86)"/><path class="cls-1" d="M519.9,107.52V57.34h17.88V47.12h-48V57.34H507.7v50.18Z" transform="translate(-32.91 -25.86)"/><path class="cls-1" d="M130.26,107.52V36.07H153.2V25.86H95.08V36.07h23v71.44Z" transform="translate(-32.91 -25.86)"/><path class="cls-2" d="M68.17,46.43l35.27,61.09H32.91Z" transform="translate(-32.91 -25.86)"/></svg>